<svg width="35" height="35" viewBox="0 0 35 35" fill="none" xmlns="http://www.w3.org/2000/svg">
<g clip-path="url(#clip0_179_46)">
<path fill-rule="evenodd" clip-rule="evenodd" d="M10.5837 15.1356C10.181 14.7329 10.181 14.08 10.5837 13.6772L16.7709 7.49006C17.1736 7.08735 17.8266 7.08735 18.2293 7.49006L24.4164 13.6772C24.8192 14.08 24.8192 14.7329 24.4164 15.1356C24.0137 15.5383 23.3608 15.5383 22.9581 15.1356L18.5313 10.7088L18.5313 26.7808C18.5313 27.3503 18.0696 27.812 17.5001 27.812C16.9306 27.812 16.4689 27.3503 16.4689 26.7808L16.4689 10.7088L12.0421 15.1356C11.6394 15.5383 10.9865 15.5383 10.5837 15.1356Z" fill="white"/>
</g>
<defs>
<clipPath id="clip0_179_46">
<rect width="24.7487" height="24.7487" fill="white" transform="translate(0 17.5) rotate(-45)"/>
</clipPath>
</defs>
</svg>
